<svg xmlns="http://www.w3.org/2000/svg" xmlns:xlink="http://www.w3.org/1999/xlink" width="637" zoomAndPan="magnify" viewBox="0 0 477.75 476.999988" height="636" preserveAspectRatio="xMidYMid meet" version="1.0"><defs><clipPath id="a64208dcc9"><path d="M 4.332031 215 L 156 215 L 156 308 L 4.332031 308 Z M 4.332031 215 " clip-rule="nonzero"/></clipPath><clipPath id="63dae17b06"><path d="M 232 3.882812 L 309 3.882812 L 309 133 L 232 133 Z M 232 3.882812 " clip-rule="nonzero"/></clipPath><clipPath id="b9bc54459a"><path d="M 182 184.285156 L 472.835938 184.285156 L 472.835938 472.984375 L 182 472.984375 Z M 182 184.285156 " clip-rule="nonzero"/></clipPath></defs><path fill="#213a23" d="M 37.6875 126.078125 C 37.753906 126.445312 37.847656 126.792969 37.960938 127.117188 C 38.085938 127.480469 38.234375 127.816406 38.414062 128.132812 C 38.613281 128.472656 38.839844 128.785156 39.101562 129.066406 C 39.382812 129.371094 39.707031 129.640625 40.066406 129.871094 C 40.449219 130.117188 40.878906 130.320312 41.351562 130.480469 C 41.851562 130.652344 42.40625 130.769531 43.007812 130.835938 C 43.648438 130.90625 44.339844 130.921875 45.085938 130.871094 C 45.875 130.820312 46.722656 130.703125 47.636719 130.519531 C 48.195312 130.40625 48.777344 130.265625 49.382812 130.097656 C 49.8125 129.980469 50.25 129.847656 50.691406 129.707031 C 51.804688 129.351562 52.964844 128.917969 54.164062 128.417969 C 55.414062 127.894531 56.699219 127.300781 58.027344 126.632812 C 59.398438 125.941406 60.8125 125.179688 62.257812 124.34375 C 63.746094 123.480469 65.269531 122.550781 66.824219 121.546875 C 68.417969 120.515625 70.039062 119.417969 71.683594 118.253906 C 73.367188 117.058594 75.070312 115.796875 76.792969 114.476562 C 78.546875 113.125 80.320312 111.710938 82.09375 110.242188 C 83.605469 108.390625 83.871094 105.289062 82.886719 101.03125 C 82.457031 99.164062 80.777344 93.761719 79.1875 92.863281 C 79.085938 92.890625 78.949219 92.933594 78.847656 92.964844 C 77.941406 93.714844 77.039062 94.433594 76.144531 95.125 C 75.265625 95.796875 74.394531 96.441406 73.535156 97.050781 C 72.695312 97.644531 71.867188 98.207031 71.054688 98.730469 C 70.261719 99.242188 69.484375 99.71875 68.726562 100.160156 C 67.988281 100.585938 67.269531 100.972656 66.566406 101.328125 C 65.890625 101.667969 65.230469 101.972656 64.597656 102.238281 C 63.984375 102.496094 63.390625 102.714844 62.824219 102.898438 C 62.597656 102.96875 62.375 103.035156 62.15625 103.09375 C 61.847656 103.179688 61.550781 103.253906 61.265625 103.308594 C 60.800781 103.40625 60.367188 103.464844 59.964844 103.488281 C 59.582031 103.515625 59.226562 103.507812 58.902344 103.472656 C 58.59375 103.4375 58.3125 103.375 58.054688 103.289062 C 57.816406 103.210938 57.597656 103.105469 57.398438 102.980469 C 57.214844 102.859375 57.054688 102.722656 56.910156 102.570312 C 56.777344 102.425781 56.660156 102.265625 56.558594 102.089844 C 56.46875 101.933594 56.390625 101.757812 56.324219 101.574219 C 56.324219 101.574219 56.339844 97.277344 58.558594 92.542969 C 58.597656 92.472656 58.628906 92.40625 58.667969 92.332031 C 59.183594 91.363281 59.773438 90.347656 60.445312 89.289062 C 61.121094 88.21875 61.871094 87.101562 62.699219 85.949219 C 63.164062 85.304688 63.648438 84.648438 64.15625 83.980469 C 64.566406 83.445312 64.984375 82.910156 65.410156 82.378906 C 66.367188 81.179688 67.363281 79.984375 68.394531 78.808594 C 69.425781 77.632812 70.484375 76.472656 71.570312 75.335938 C 72.652344 74.203125 73.753906 73.09375 74.867188 72.011719 C 75.980469 70.9375 77.101562 69.894531 78.226562 68.886719 C 79.34375 67.886719 80.464844 66.925781 81.582031 66.007812 C 82.6875 65.101562 83.785156 64.238281 84.871094 63.421875 C 85.941406 62.621094 87 61.863281 88.039062 61.164062 C 89.058594 60.476562 90.0625 59.84375 91.035156 59.269531 C 91.988281 58.703125 92.914062 58.199219 93.804688 57.757812 C 94.679688 57.324219 95.519531 56.953125 96.320312 56.648438 C 96.910156 56.425781 97.476562 56.238281 98.019531 56.089844 C 99.179688 55.769531 100.171875 55.640625 101 55.6875 C 101.976562 55.746094 102.722656 56.050781 103.230469 56.578125 C 103.757812 57.125 104.039062 57.90625 104.070312 58.898438 C 104.105469 59.910156 103.882812 61.140625 103.410156 62.558594 C 102.933594 63.992188 102.195312 65.617188 101.207031 67.410156 C 100.214844 69.203125 98.964844 71.160156 97.464844 73.25 C 97.457031 73.335938 97.445312 73.453125 97.4375 73.542969 C 99.109375 74.652344 114.378906 75.515625 118.574219 71.613281 C 121.515625 67.515625 123.960938 63.683594 125.90625 60.167969 C 127.84375 56.660156 129.285156 53.472656 130.222656 50.664062 C 131.148438 47.882812 131.582031 45.472656 131.515625 43.492188 C 131.449219 41.546875 130.90625 40.015625 129.875 38.949219 C 128.875 37.910156 127.417969 37.3125 125.496094 37.203125 C 123.878906 37.109375 121.933594 37.359375 119.660156 37.984375 C 118.59375 38.28125 117.484375 38.648438 116.328125 39.085938 C 114.761719 39.683594 113.113281 40.410156 111.40625 41.257812 C 109.652344 42.125 107.839844 43.113281 105.96875 44.21875 C 104.0625 45.34375 102.105469 46.585938 100.105469 47.933594 C 98.070312 49.304688 95.996094 50.785156 93.894531 52.359375 C 91.769531 53.953125 89.613281 55.648438 87.449219 57.425781 C 85.261719 59.222656 83.066406 61.109375 80.878906 63.0625 C 78.667969 65.035156 76.46875 67.082031 74.296875 69.1875 C 72.109375 71.304688 69.949219 73.480469 67.832031 75.699219 C 65.707031 77.929688 63.628906 80.203125 61.609375 82.507812 C 59.589844 84.8125 57.632812 87.148438 55.753906 89.5 C 54.921875 90.542969 54.105469 91.589844 53.304688 92.636719 C 52.503906 93.6875 51.742188 94.71875 51.003906 95.734375 L 50.992188 95.742188 L 50.992188 95.75 C 50.8125 96 50.625 96.25 50.449219 96.496094 C 48.824219 98.761719 47.351562 100.945312 46.03125 103.039062 C 44.71875 105.121094 43.558594 107.113281 42.546875 109.007812 C 42.546875 109.007812 36.621094 118.769531 37.75 125.847656 C 37.726562 125.925781 37.699219 126.007812 37.6875 126.078125 " fill-opacity="1" fill-rule="nonzero"/><path fill="#213a23" d="M 9.9375 214.765625 C 11.933594 216.628906 14.652344 217.800781 18.105469 218.210938 C 21.707031 218.636719 26.105469 218.230469 31.308594 216.921875 C 31.773438 216.804688 32.242188 216.679688 32.714844 216.546875 C 37.78125 215.152344 43.316406 213.011719 49.21875 210.207031 C 55.859375 207.054688 62.957031 203.066406 70.355469 198.378906 C 77.917969 193.585938 85.796875 188.058594 93.816406 181.9375 C 101.964844 175.714844 110.261719 168.882812 118.527344 161.585938 C 126.878906 154.210938 135.199219 146.355469 143.296875 138.183594 C 151.441406 129.964844 159.363281 121.425781 166.875 112.710938 C 172.601562 106.066406 178.089844 99.328125 183.253906 92.554688 C 184.867188 90.445312 186.421875 88.359375 187.925781 86.300781 C 194.21875 77.695312 199.566406 69.570312 203.964844 62.039062 C 205.652344 57.066406 198.878906 55.347656 195.890625 54.839844 C 191.441406 54.082031 180.265625 54.078125 176.039062 58.992188 C 172.414062 65.195312 168.003906 71.890625 162.820312 78.984375 C 161.582031 80.679688 160.300781 82.394531 158.972656 84.132812 C 154.71875 89.714844 150.195312 95.265625 145.476562 100.742188 C 139.289062 107.917969 132.761719 114.960938 126.050781 121.730469 C 119.378906 128.460938 112.527344 134.933594 105.640625 141.011719 C 98.832031 147.023438 92 152.652344 85.285156 157.777344 C 78.675781 162.820312 72.1875 167.375 65.953125 171.324219 C 59.859375 175.1875 54.007812 178.472656 48.539062 181.070312 C 43.675781 183.378906 39.113281 185.144531 34.941406 186.292969 C 34.550781 186.402344 34.164062 186.503906 33.78125 186.601562 C 29.496094 187.679688 25.871094 188.015625 22.902344 187.664062 C 20.058594 187.328125 17.820312 186.363281 16.175781 184.824219 C 14.613281 183.363281 13.589844 181.382812 13.101562 178.929688 C 12.640625 176.621094 12.652344 173.894531 13.230469 170.203125 C 13.832031 167.507812 14.808594 163.953125 15.636719 161.320312 C 12.527344 170.359375 12.527344 170.359375 8.054688 188.417969 L 6.476562 196.382812 L 6.25 197.730469 C 5.664062 201.5 5.648438 204.808594 6.207031 207.605469 C 6.800781 210.585938 8.042969 212.988281 9.9375 214.765625 " fill-opacity="1" fill-rule="nonzero"/><g clip-path="url(#a64208dcc9)"><path fill="#213a23" d="M 118.21875 267.117188 C 123.492188 263.367188 128.832031 259.414062 134.210938 255.269531 C 139.707031 251.039062 145.246094 246.613281 150.800781 242.015625 C 157.507812 234.953125 154.71875 227.292969 153.210938 224.324219 C 153.136719 224.179688 145.363281 210.242188 134.023438 217.472656 C 128.933594 221.683594 123.859375 225.734375 118.828125 229.613281 C 113.898438 233.40625 109.007812 237.027344 104.179688 240.460938 C 99.46875 243.8125 94.8125 246.984375 90.242188 249.957031 C 85.789062 252.847656 81.414062 255.550781 77.136719 258.046875 C 72.984375 260.472656 68.921875 262.703125 64.972656 264.722656 C 61.152344 266.679688 57.4375 268.4375 53.839844 269.984375 C 50.371094 271.476562 47.015625 272.777344 43.789062 273.863281 C 41.941406 274.488281 40.128906 275.046875 38.367188 275.53125 C 37.175781 275.859375 36.015625 276.152344 34.886719 276.410156 C 32.210938 277.023438 29.707031 277.441406 27.378906 277.671875 C 25.164062 277.886719 23.105469 277.9375 21.203125 277.820312 C 19.402344 277.710938 17.746094 277.453125 16.222656 277.054688 C 14.796875 276.683594 13.488281 276.183594 12.308594 275.5625 C 11.203125 274.980469 10.207031 274.296875 9.316406 273.511719 C 8.492188 272.78125 7.761719 271.96875 7.117188 271.070312 C 6.53125 270.246094 6.019531 269.355469 5.582031 268.394531 C 5.191406 267.527344 4.859375 266.605469 4.417969 265.164062 C 4.339844 266.125 4.339844 266.125 4.691406 269.074219 C 5.75 276.375 7.695312 286.027344 9.132812 293.261719 C 9.230469 293.664062 9.367188 294.199219 9.46875 294.597656 C 9.765625 295.664062 10.128906 296.671875 10.558594 297.617188 C 11.039062 298.667969 11.59375 299.640625 12.234375 300.539062 C 12.9375 301.519531 13.734375 302.410156 14.632812 303.203125 C 15.609375 304.0625 16.695312 304.808594 17.902344 305.441406 C 19.191406 306.121094 20.617188 306.667969 22.175781 307.074219 C 23.839844 307.511719 25.648438 307.789062 27.613281 307.910156 C 29.691406 308.039062 31.9375 307.984375 34.359375 307.746094 C 36.902344 307.496094 39.632812 307.039062 42.558594 306.371094 C 43.789062 306.085938 45.054688 305.769531 46.355469 305.410156 C 48.28125 304.878906 50.253906 304.273438 52.277344 303.589844 C 55.800781 302.402344 59.464844 300.984375 63.25 299.355469 C 67.179688 297.664062 71.238281 295.742188 75.410156 293.609375 C 79.722656 291.402344 84.15625 288.96875 88.6875 286.320312 C 93.359375 283.59375 98.136719 280.640625 103 277.484375 C 107.992188 274.238281 113.074219 270.777344 118.21875 267.117188 " fill-opacity="1" fill-rule="nonzero"/></g><g clip-path="url(#63dae17b06)"><path fill="#213a23" d="M 260.558594 127.820312 C 270.785156 114.222656 279.398438 101.429688 286.382812 89.636719 C 293.367188 77.84375 298.722656 67.054688 302.429688 57.460938 C 306.101562 47.953125 308.148438 39.625 308.558594 32.667969 C 308.957031 25.835938 307.773438 20.328125 304.984375 16.320312 C 302.628906 12.9375 299.128906 10.632812 294.472656 9.503906 C 286.527344 7.734375 275.820312 5.917969 267.785156 4.601562 L 262.144531 3.96875 C 262.636719 4.011719 263.117188 4.078125 263.589844 4.148438 C 268.867188 4.953125 272.742188 7.214844 275.222656 10.777344 C 277.777344 14.445312 278.859375 19.492188 278.496094 25.75 C 278.121094 32.121094 276.246094 39.746094 272.882812 48.457031 C 269.492188 57.238281 264.585938 67.121094 258.1875 77.925781 C 251.792969 88.722656 243.902344 100.4375 234.539062 112.894531 C 233.605469 114.515625 232.441406 116.539062 232.683594 119.429688 C 233.472656 128.921875 249.449219 139.425781 260.558594 127.820312 " fill-opacity="1" fill-rule="nonzero"/></g><path fill="#213a23" d="M 64.15625 361.871094 C 60.445312 362.578125 57.03125 362.953125 53.914062 363.011719 C 50.859375 363.066406 48.089844 362.816406 45.605469 362.273438 C 43.175781 361.742188 41.019531 360.929688 39.132812 359.847656 C 37.289062 358.792969 35.707031 357.480469 34.382812 355.921875 C 33.601562 355.007812 32.910156 354.007812 32.308594 352.921875 C 36.074219 359.472656 41.605469 367.898438 45.714844 374.238281 L 50.609375 380.910156 C 50.8125 381.175781 51.019531 381.4375 51.238281 381.691406 C 52.597656 383.292969 54.226562 384.640625 56.117188 385.722656 C 58.054688 386.835938 60.273438 387.667969 62.769531 388.214844 C 65.320312 388.773438 68.167969 389.03125 71.308594 388.972656 C 74.507812 388.914062 78.015625 388.53125 81.832031 387.804688 C 86.5 385.816406 83.835938 379.519531 81.832031 375.941406 C 81.753906 375.800781 73.476562 361.777344 64.15625 361.871094 " fill-opacity="1" fill-rule="nonzero"/><path fill="#213a23" d="M 180.636719 295.390625 C 175.605469 299.441406 170.597656 303.359375 165.621094 307.128906 C 160.679688 310.875 155.777344 314.472656 150.921875 317.917969 C 146.105469 321.332031 141.34375 324.589844 136.644531 327.679688 C 131.984375 330.746094 127.394531 333.640625 122.882812 336.359375 C 121.8125 337.21875 120.378906 338.46875 119.722656 339.679688 C 114.570312 349.183594 127.484375 367.964844 142.171875 361.589844 C 146.800781 358.796875 151.519531 355.820312 156.308594 352.671875 C 161.132812 349.5 166.03125 346.148438 170.980469 342.640625 C 175.964844 339.101562 181.003906 335.40625 186.082031 331.554688 C 191.195312 327.683594 196.34375 323.65625 201.511719 319.492188 C 206.707031 315.308594 211.925781 310.980469 217.148438 306.53125 C 222.394531 302.0625 227.644531 297.464844 232.882812 292.757812 C 238.136719 288.03125 243.378906 283.195312 248.589844 278.257812 C 253.816406 273.304688 259.007812 268.257812 264.148438 263.125 C 269.304688 257.980469 274.410156 252.753906 279.441406 247.460938 C 284.484375 242.15625 289.460938 236.785156 294.34375 231.359375 C 299.230469 225.929688 304.035156 220.445312 308.730469 214.925781 C 313.421875 209.402344 318.011719 203.847656 322.472656 198.261719 C 325.648438 194.296875 328.757812 190.316406 331.796875 186.332031 C 333.03125 184.714844 334.246094 183.105469 335.441406 181.507812 C 339.574219 175.984375 343.472656 170.574219 347.132812 165.296875 C 350.785156 160.03125 354.207031 154.890625 357.390625 149.886719 C 360.5625 144.90625 363.507812 140.058594 366.210938 135.355469 C 369.585938 127.050781 364.113281 120.347656 361.601562 117.851562 C 361.476562 117.730469 348.859375 105.992188 340.9375 116.171875 C 338.304688 120.746094 335.441406 125.464844 332.351562 130.316406 C 329.253906 135.183594 325.925781 140.1875 322.367188 145.3125 C 318.804688 150.449219 315.011719 155.714844 310.988281 161.089844 C 309.828125 162.648438 308.644531 164.210938 307.445312 165.785156 C 304.484375 169.664062 301.457031 173.535156 298.371094 177.398438 C 294.023438 182.832031 289.558594 188.242188 284.988281 193.613281 C 280.421875 198.988281 275.746094 204.324219 270.988281 209.609375 C 266.234375 214.886719 261.394531 220.117188 256.488281 225.277344 C 251.589844 230.433594 246.621094 235.519531 241.601562 240.527344 C 236.597656 245.519531 231.542969 250.433594 226.457031 255.253906 C 221.386719 260.058594 216.285156 264.765625 211.167969 269.367188 C 206.074219 273.949219 200.964844 278.421875 195.855469 282.773438 C 190.773438 287.105469 185.695312 291.3125 180.636719 295.390625 " fill-opacity="1" fill-rule="nonzero"/><path fill="#213a23" d="M 362.800781 45.898438 C 363.984375 51.15625 363.824219 57.605469 362.34375 65.113281 C 362.335938 66.113281 362.472656 67.476562 362.824219 68.40625 C 365.980469 76.734375 384.746094 90.585938 388.207031 82.894531 C 389.730469 75.183594 389.890625 68.554688 388.675781 63.152344 C 387.519531 58.007812 385.113281 53.976562 381.449219 51.167969 L 374.796875 46.25 C 369.019531 42.121094 361 37.335938 354.714844 33.492188 C 354.988281 33.671875 355.257812 33.855469 355.515625 34.046875 C 359.222656 36.785156 361.648438 40.777344 362.800781 45.898438 " fill-opacity="1" fill-rule="nonzero"/><path fill="#213a23" d="M 236.390625 400.789062 C 248.828125 391.894531 261.597656 381.972656 274.421875 371.25 C 287.285156 360.492188 300.210938 348.925781 312.914062 336.78125 C 320.316406 328.242188 317.273438 321.3125 315.621094 318.730469 C 315.535156 318.597656 306.484375 305.921875 292.511719 316.945312 C 279.457031 329.425781 266.179688 341.308594 252.960938 352.359375 C 239.785156 363.378906 226.664062 373.574219 213.886719 382.710938 C 201.195312 391.785156 188.84375 399.8125 177.097656 406.578125 C 165.484375 413.261719 154.464844 418.710938 144.308594 422.695312 C 139.5 424.585938 134.882812 426.148438 130.492188 427.355469 C 125.746094 428.664062 121.398438 429.523438 117.441406 429.957031 C 109.964844 430.777344 103.882812 430.082031 99.1875 428 C 97.714844 427.351562 96.378906 426.5625 95.179688 425.644531 C 100.328125 429.542969 107.523438 434.28125 112.84375 437.941406 L 123.070312 444.027344 C 123.613281 444.332031 124.171875 444.609375 124.757812 444.867188 C 129.328125 446.894531 135.246094 447.574219 142.523438 446.773438 C 146.375 446.347656 150.609375 445.511719 155.222656 444.242188 C 159.5 443.0625 163.992188 441.542969 168.675781 439.707031 C 178.558594 435.828125 189.28125 430.527344 200.585938 424.015625 C 212.015625 417.433594 224.039062 409.617188 236.390625 400.789062 " fill-opacity="1" fill-rule="nonzero"/><path fill="#213a23" d="M 440.5 167.917969 C 444.269531 158.132812 446.492188 149.472656 447.148438 142.105469 C 447.785156 134.945312 446.945312 129.007812 444.609375 124.449219 C 444.511719 124.257812 444.410156 124.066406 444.308594 123.878906 C 440.9375 117.941406 435.945312 110.320312 432.292969 104.554688 L 426.011719 95.898438 C 426.691406 96.789062 427.292969 97.753906 427.824219 98.785156 C 430.222656 103.464844 431.085938 109.566406 430.429688 116.925781 C 429.753906 124.496094 427.472656 133.394531 423.601562 143.449219 C 423.078125 145.601562 422.539062 147.828125 423.890625 152.945312 C 426.371094 162.351562 436.027344 175.734375 440.5 167.917969 " fill-opacity="1" fill-rule="nonzero"/><g clip-path="url(#b9bc54459a)"><path fill="#213a23" d="M 469.195312 238.171875 C 471.96875 229.832031 473.203125 222.632812 472.902344 216.761719 C 472.878906 216.316406 472.847656 215.878906 472.804688 215.449219 L 472.464844 212.1875 C 471.46875 203.910156 469.386719 193.140625 467.691406 184.65625 C 467.890625 185.816406 468.03125 187.027344 468.09375 188.300781 C 468.429688 194.710938 467.074219 202.570312 464.054688 211.679688 C 460.980469 220.945312 456.1875 231.503906 449.6875 243.148438 C 443.128906 254.894531 434.839844 267.746094 424.839844 281.480469 C 422.5625 284.609375 420.195312 287.78125 417.738281 291 C 409.402344 301.929688 400.472656 312.796875 391.125 323.464844 C 379.101562 337.183594 366.386719 350.566406 353.359375 363.308594 C 340.523438 375.863281 327.375 387.792969 314.285156 398.800781 C 301.496094 409.558594 288.757812 419.4375 276.402344 428.160156 C 264.441406 436.605469 252.839844 443.96875 241.910156 449.996094 C 231.425781 455.773438 221.558594 460.324219 212.574219 463.425781 C 210.277344 464.214844 208.039062 464.914062 205.863281 465.515625 C 199.960938 467.136719 194.761719 467.972656 190.246094 468.070312 C 187.214844 468.136719 184.492188 467.867188 182.082031 467.28125 L 183.777344 467.691406 C 192.921875 469.574219 205.222656 471.554688 214.472656 472.835938 C 215.726562 472.960938 217.050781 473.007812 218.445312 472.976562 C 222.578125 472.886719 227.34375 472.121094 232.75 470.632812 C 234.742188 470.085938 236.792969 469.449219 238.894531 468.71875 C 247.121094 465.882812 256.15625 461.714844 265.757812 456.421875 C 275.769531 450.902344 286.394531 444.160156 297.347656 436.425781 C 308.660156 428.4375 320.328125 419.390625 332.042969 409.539062 C 344.03125 399.457031 356.070312 388.53125 367.824219 377.035156 C 379.757812 365.367188 391.398438 353.109375 402.410156 340.546875 C 410.96875 330.777344 419.148438 320.820312 426.785156 310.816406 C 429.03125 307.867188 431.199219 304.960938 433.285156 302.09375 C 442.445312 289.515625 450.039062 277.75 456.042969 266.992188 C 461.992188 256.328125 466.386719 246.65625 469.195312 238.171875 " fill-opacity="1" fill-rule="nonzero"/></g><path fill="#213a23" d="M 372.738281 420.242188 C 372.683594 420.214844 367.1875 417.929688 358.675781 424.191406 C 354.648438 427.523438 350.632812 430.730469 346.648438 433.792969 C 342.746094 436.792969 338.875 439.652344 335.054688 442.359375 C 331.324219 445.003906 327.644531 447.5 324.027344 449.835938 C 320.507812 452.109375 317.050781 454.226562 313.671875 456.175781 C 310.394531 458.070312 307.191406 459.808594 304.078125 461.371094 C 301.066406 462.886719 298.140625 464.238281 295.316406 465.421875 C 292.589844 466.5625 289.957031 467.542969 287.429688 468.351562 C 286.425781 468.671875 285.4375 468.96875 284.464844 469.234375 C 283.09375 469.613281 281.777344 469.929688 280.507812 470.1875 C 286.867188 468.933594 294.929688 466.984375 301.050781 465.519531 C 305.074219 464.410156 310.363281 462.660156 314.351562 461.429688 C 315.9375 460.878906 317.574219 460.25 319.253906 459.550781 C 321.578125 458.578125 323.992188 457.460938 326.472656 456.214844 C 329.035156 454.921875 331.675781 453.492188 334.375 451.933594 C 337.160156 450.324219 340.007812 448.582031 342.910156 446.707031 C 345.890625 444.785156 348.921875 442.726562 351.996094 440.546875 C 355.144531 438.320312 358.332031 435.960938 361.546875 433.492188 C 364.832031 430.96875 368.136719 428.328125 371.457031 425.578125 C 374.242188 423.007812 374.671875 421.210938 372.738281 420.242188 " fill-opacity="1" fill-rule="nonzero"/><path fill="#213a23" d="M 280.5 470.191406 L 280.507812 470.1875 C 280.199219 470.253906 279.890625 470.3125 279.589844 470.367188 C 279.890625 470.3125 280.195312 470.253906 280.5 470.191406 " fill-opacity="1" fill-rule="nonzero"/><path fill="#213a23" d="M 458.070312 310.578125 C 453.660156 318.554688 448.113281 327.253906 441.445312 336.542969 C 435.835938 345.285156 436.113281 353.125 436.117188 353.203125 C 436.417969 357.40625 438.855469 354.363281 439.652344 353.363281 C 445.148438 345.710938 449.71875 338.542969 453.351562 331.972656 C 456.664062 325.980469 459.199219 320.492188 460.949219 315.582031 C 463.28125 308.230469 466.078125 298.328125 468.011719 290.863281 L 470.128906 280.484375 C 469.636719 283.125 468.882812 285.972656 467.871094 289.015625 C 465.742188 295.390625 462.472656 302.625 458.070312 310.578125 " fill-opacity="1" fill-rule="nonzero"/></svg>