<svg xmlns="http://www.w3.org/2000/svg" xmlns:xlink="http://www.w3.org/1999/xlink" width="1864" zoomAndPan="magnify" viewBox="0 0 1398 321.749992" height="429" preserveAspectRatio="xMidYMid meet" version="1.0"><defs><g/><clipPath id="0caf547f0c"><path d="M 0.542969 0 L 1397.457031 0 L 1397.457031 321.5 L 0.542969 321.5 Z M 0.542969 0 " clip-rule="nonzero"/></clipPath><clipPath id="7018309eec"><path d="M 0.542969 150 L 101 150 L 101 212 L 0.542969 212 Z M 0.542969 150 " clip-rule="nonzero"/></clipPath><clipPath id="4774c1dff5"><path d="M 152 10.007812 L 203 10.007812 L 203 96 L 152 96 Z M 152 10.007812 " clip-rule="nonzero"/></clipPath><clipPath id="901b80f242"><path d="M 118.382812 129.707031 L 311.46875 129.707031 L 311.46875 321.015625 L 118.382812 321.015625 Z M 118.382812 129.707031 " clip-rule="nonzero"/></clipPath><clipPath id="276691d18c"><path d="M 390 40 L 1397.457031 40 L 1397.457031 226 L 390 226 Z M 390 40 " clip-rule="nonzero"/></clipPath><clipPath id="b6862b1d3c"><rect x="0" width="1008" y="0" height="186"/></clipPath><clipPath id="d4bc31f906"><rect x="0" width="554" y="0" height="55"/></clipPath></defs><path fill="#18442A" d="M 22.675781 91.089844 C 22.71875 91.332031 22.78125 91.5625 22.855469 91.777344 C 22.9375 92.019531 23.039062 92.242188 23.160156 92.449219 C 23.289062 92.675781 23.441406 92.886719 23.613281 93.070312 C 23.800781 93.273438 24.015625 93.453125 24.253906 93.605469 C 24.507812 93.769531 24.792969 93.90625 25.105469 94.007812 C 25.4375 94.121094 25.804688 94.203125 26.207031 94.246094 C 26.628906 94.292969 27.089844 94.300781 27.585938 94.269531 C 28.109375 94.234375 28.671875 94.160156 29.277344 94.035156 C 29.648438 93.960938 30.035156 93.867188 30.4375 93.753906 C 30.71875 93.675781 31.007812 93.589844 31.300781 93.496094 C 32.042969 93.257812 32.8125 92.972656 33.609375 92.640625 C 34.4375 92.292969 35.289062 91.898438 36.171875 91.457031 C 37.082031 90.996094 38.019531 90.492188 38.976562 89.9375 C 39.964844 89.367188 40.976562 88.746094 42.007812 88.082031 C 43.0625 87.398438 44.140625 86.667969 45.230469 85.894531 C 46.347656 85.105469 47.480469 84.269531 48.621094 83.390625 C 49.785156 82.496094 50.960938 81.554688 52.140625 80.582031 C 53.140625 79.351562 53.320312 77.296875 52.664062 74.46875 C 52.378906 73.230469 51.265625 69.644531 50.210938 69.050781 C 50.144531 69.070312 50.050781 69.097656 49.984375 69.117188 C 49.386719 69.613281 48.785156 70.09375 48.191406 70.550781 C 47.609375 70.996094 47.03125 71.425781 46.460938 71.828125 C 45.902344 72.222656 45.355469 72.597656 44.816406 72.945312 C 44.289062 73.28125 43.773438 73.597656 43.269531 73.890625 C 42.78125 74.171875 42.300781 74.433594 41.835938 74.664062 C 41.386719 74.890625 40.953125 75.09375 40.527344 75.269531 C 40.121094 75.441406 39.730469 75.585938 39.351562 75.707031 C 39.203125 75.753906 39.054688 75.800781 38.910156 75.839844 C 38.703125 75.894531 38.507812 75.945312 38.320312 75.980469 C 38.011719 76.042969 37.722656 76.085938 37.457031 76.101562 C 37.203125 76.117188 36.96875 76.113281 36.75 76.089844 C 36.546875 76.066406 36.359375 76.027344 36.191406 75.96875 C 36.03125 75.914062 35.886719 75.847656 35.753906 75.761719 C 35.632812 75.683594 35.523438 75.59375 35.429688 75.492188 C 35.339844 75.394531 35.261719 75.289062 35.195312 75.171875 C 35.136719 75.066406 35.085938 74.953125 35.042969 74.828125 C 35.042969 74.828125 35.050781 71.980469 36.523438 68.839844 C 36.546875 68.789062 36.570312 68.746094 36.59375 68.699219 C 36.9375 68.054688 37.332031 67.382812 37.773438 66.675781 C 38.222656 65.96875 38.71875 65.226562 39.269531 64.460938 C 39.578125 64.035156 39.898438 63.597656 40.238281 63.15625 C 40.507812 62.800781 40.785156 62.445312 41.066406 62.09375 C 41.703125 61.296875 42.367188 60.503906 43.050781 59.726562 C 43.734375 58.945312 44.4375 58.175781 45.15625 57.421875 C 45.875 56.667969 46.605469 55.933594 47.34375 55.214844 C 48.082031 54.503906 48.828125 53.808594 49.574219 53.140625 C 50.316406 52.480469 51.058594 51.839844 51.800781 51.234375 C 52.53125 50.628906 53.261719 50.058594 53.980469 49.515625 C 54.691406 48.984375 55.394531 48.480469 56.085938 48.019531 C 56.761719 47.5625 57.425781 47.140625 58.070312 46.761719 C 58.703125 46.386719 59.320312 46.050781 59.910156 45.757812 C 60.488281 45.46875 61.046875 45.226562 61.578125 45.023438 C 61.96875 44.875 62.34375 44.75 62.707031 44.648438 C 63.476562 44.4375 64.132812 44.351562 64.683594 44.382812 C 65.332031 44.421875 65.824219 44.625 66.164062 44.976562 C 66.511719 45.335938 66.699219 45.855469 66.71875 46.515625 C 66.742188 47.1875 66.597656 48 66.28125 48.941406 C 65.964844 49.894531 65.476562 50.972656 64.820312 52.160156 C 64.164062 53.351562 63.332031 54.648438 62.339844 56.035156 C 62.332031 56.09375 62.324219 56.171875 62.316406 56.230469 C 63.429688 56.96875 73.558594 57.539062 76.34375 54.949219 C 78.296875 52.234375 79.917969 49.6875 81.207031 47.355469 C 82.492188 45.03125 83.449219 42.914062 84.074219 41.050781 C 84.6875 39.207031 84.972656 37.609375 84.929688 36.292969 C 84.886719 35.003906 84.527344 33.984375 83.839844 33.277344 C 83.179688 32.589844 82.210938 32.191406 80.9375 32.117188 C 79.863281 32.058594 78.574219 32.222656 77.0625 32.640625 C 76.355469 32.835938 75.621094 33.078125 74.851562 33.371094 C 73.8125 33.765625 72.722656 34.25 71.585938 34.808594 C 70.425781 35.382812 69.222656 36.042969 67.980469 36.773438 C 66.714844 37.519531 65.414062 38.347656 64.089844 39.238281 C 62.738281 40.148438 61.363281 41.132812 59.96875 42.175781 C 58.558594 43.234375 57.128906 44.359375 55.691406 45.539062 C 54.242188 46.730469 52.785156 47.980469 51.332031 49.277344 C 49.867188 50.585938 48.40625 51.945312 46.964844 53.339844 C 45.515625 54.746094 44.082031 56.191406 42.675781 57.664062 C 41.265625 59.144531 39.886719 60.652344 38.546875 62.179688 C 37.207031 63.710938 35.90625 65.257812 34.664062 66.820312 C 34.109375 67.511719 33.570312 68.207031 33.039062 68.902344 C 32.507812 69.597656 32 70.28125 31.511719 70.957031 L 31.503906 70.960938 L 31.503906 70.964844 C 31.382812 71.128906 31.257812 71.296875 31.140625 71.460938 C 30.066406 72.964844 29.085938 74.414062 28.210938 75.800781 C 27.339844 77.183594 26.570312 78.503906 25.898438 79.761719 C 25.898438 79.761719 21.96875 86.238281 22.714844 90.9375 C 22.703125 90.988281 22.683594 91.042969 22.675781 91.089844 " fill-opacity="1" fill-rule="nonzero"/><path fill="#18442A" d="M 4.265625 149.929688 C 5.585938 151.171875 7.394531 151.949219 9.683594 152.21875 C 12.070312 152.5 14.992188 152.230469 18.445312 151.363281 C 18.75 151.285156 19.0625 151.203125 19.375 151.113281 C 22.738281 150.191406 26.410156 148.769531 30.328125 146.90625 C 34.734375 144.816406 39.441406 142.171875 44.351562 139.058594 C 49.371094 135.878906 54.597656 132.210938 59.914062 128.152344 C 65.324219 124.023438 70.828125 119.488281 76.3125 114.648438 C 81.855469 109.753906 87.375 104.542969 92.75 99.121094 C 98.152344 93.667969 103.40625 88 108.390625 82.21875 C 112.191406 77.8125 115.832031 73.339844 119.257812 68.847656 C 120.328125 67.445312 121.363281 66.0625 122.359375 64.699219 C 126.535156 58.984375 130.082031 53.59375 133 48.597656 C 134.121094 45.300781 129.625 44.160156 127.640625 43.820312 C 124.691406 43.320312 117.277344 43.316406 114.46875 46.574219 C 112.066406 50.695312 109.140625 55.132812 105.703125 59.839844 C 104.878906 60.964844 104.027344 62.105469 103.148438 63.257812 C 100.324219 66.960938 97.324219 70.644531 94.195312 74.277344 C 90.085938 79.039062 85.757812 83.710938 81.304688 88.203125 C 76.878906 92.671875 72.332031 96.964844 67.761719 100.996094 C 63.246094 104.984375 58.710938 108.71875 54.253906 112.121094 C 49.871094 115.464844 45.566406 118.488281 41.429688 121.109375 C 37.386719 123.671875 33.503906 125.851562 29.875 127.574219 C 26.648438 129.109375 23.621094 130.28125 20.851562 131.042969 C 20.59375 131.113281 20.335938 131.179688 20.082031 131.246094 C 17.238281 131.960938 14.835938 132.183594 12.867188 131.949219 C 10.980469 131.726562 9.492188 131.085938 8.402344 130.066406 C 7.367188 129.097656 6.6875 127.78125 6.363281 126.15625 C 6.058594 124.621094 6.066406 122.816406 6.449219 120.363281 C 6.847656 118.574219 7.492188 116.21875 8.042969 114.472656 C 5.980469 120.46875 5.980469 120.46875 3.015625 132.449219 L 1.96875 137.734375 L 1.816406 138.628906 C 1.429688 141.128906 1.417969 143.324219 1.789062 145.183594 C 2.183594 147.160156 3.007812 148.753906 4.265625 149.929688 " fill-opacity="1" fill-rule="nonzero"/><g clip-path="url(#7018309eec)"><path fill="#18442A" d="M 76.109375 184.667969 C 79.605469 182.179688 83.148438 179.554688 86.71875 176.804688 C 90.363281 174 94.039062 171.0625 97.726562 168.011719 C 102.175781 163.328125 100.324219 158.242188 99.324219 156.273438 C 99.277344 156.179688 94.121094 146.933594 86.59375 151.726562 C 83.214844 154.523438 79.851562 157.210938 76.511719 159.78125 C 73.242188 162.300781 69.996094 164.703125 66.792969 166.980469 C 63.667969 169.207031 60.578125 171.308594 57.542969 173.28125 C 54.589844 175.199219 51.6875 176.992188 48.851562 178.652344 C 46.09375 180.257812 43.398438 181.738281 40.78125 183.078125 C 38.246094 184.375 35.777344 185.542969 33.390625 186.570312 C 31.089844 187.5625 28.867188 188.421875 26.722656 189.144531 C 25.496094 189.558594 24.296875 189.929688 23.125 190.25 C 22.335938 190.46875 21.566406 190.664062 20.816406 190.832031 C 19.042969 191.238281 17.382812 191.515625 15.835938 191.667969 C 14.367188 191.8125 13 191.847656 11.738281 191.769531 C 10.542969 191.695312 9.441406 191.527344 8.433594 191.261719 C 7.488281 191.015625 6.621094 190.683594 5.835938 190.269531 C 5.105469 189.886719 4.441406 189.433594 3.851562 188.910156 C 3.304688 188.425781 2.820312 187.886719 2.390625 187.289062 C 2.003906 186.746094 1.664062 186.152344 1.375 185.515625 C 1.113281 184.941406 0.894531 184.328125 0.601562 183.371094 C 0.550781 184.007812 0.550781 184.007812 0.78125 185.964844 C 1.484375 190.8125 2.777344 197.214844 3.730469 202.015625 C 3.792969 202.28125 3.886719 202.636719 3.953125 202.902344 C 4.148438 203.609375 4.390625 204.277344 4.675781 204.90625 C 4.992188 205.601562 5.363281 206.246094 5.789062 206.84375 C 6.253906 207.492188 6.785156 208.085938 7.378906 208.609375 C 8.027344 209.179688 8.746094 209.675781 9.546875 210.097656 C 10.402344 210.546875 11.351562 210.910156 12.382812 211.179688 C 13.484375 211.46875 14.6875 211.65625 15.992188 211.734375 C 17.371094 211.816406 18.859375 211.78125 20.464844 211.625 C 22.152344 211.457031 23.96875 211.15625 25.90625 210.710938 C 26.722656 210.523438 27.5625 210.3125 28.425781 210.074219 C 29.703125 209.722656 31.015625 209.320312 32.355469 208.867188 C 34.691406 208.078125 37.125 207.136719 39.636719 206.058594 C 42.242188 204.933594 44.9375 203.660156 47.703125 202.246094 C 50.566406 200.78125 53.507812 199.164062 56.515625 197.410156 C 59.613281 195.601562 62.78125 193.640625 66.007812 191.546875 C 69.324219 189.394531 72.695312 187.097656 76.109375 184.667969 " fill-opacity="1" fill-rule="nonzero"/></g><g clip-path="url(#4774c1dff5)"><path fill="#18442A" d="M 170.550781 92.246094 C 177.335938 83.222656 183.050781 74.734375 187.683594 66.910156 C 192.320312 59.085938 195.871094 51.925781 198.332031 45.5625 C 200.765625 39.253906 202.125 33.726562 202.398438 29.109375 C 202.664062 24.578125 201.875 20.921875 200.027344 18.265625 C 198.464844 16.019531 196.140625 14.488281 193.050781 13.742188 C 187.78125 12.566406 180.675781 11.359375 175.34375 10.488281 L 171.601562 10.066406 C 171.929688 10.097656 172.25 10.140625 172.5625 10.1875 C 176.0625 10.722656 178.632812 12.222656 180.28125 14.585938 C 181.976562 17.019531 182.695312 20.367188 182.449219 24.519531 C 182.203125 28.746094 180.957031 33.808594 178.726562 39.585938 C 176.476562 45.414062 173.222656 51.972656 168.976562 59.136719 C 164.734375 66.304688 159.496094 74.078125 153.285156 82.339844 C 152.664062 83.417969 151.894531 84.761719 152.054688 86.679688 C 152.578125 92.972656 163.179688 99.945312 170.550781 92.246094 " fill-opacity="1" fill-rule="nonzero"/></g><path fill="#18442A" d="M 40.238281 247.535156 C 37.773438 248.007812 35.511719 248.253906 33.441406 248.292969 C 31.414062 248.328125 29.578125 248.164062 27.929688 247.804688 C 26.316406 247.449219 24.886719 246.910156 23.632812 246.195312 C 22.410156 245.496094 21.359375 244.625 20.480469 243.589844 C 19.964844 242.984375 19.507812 242.320312 19.109375 241.597656 C 21.605469 245.945312 25.277344 251.535156 28.003906 255.742188 L 31.246094 260.167969 C 31.382812 260.347656 31.523438 260.519531 31.664062 260.6875 C 32.570312 261.75 33.648438 262.644531 34.902344 263.363281 C 36.191406 264.101562 37.660156 264.652344 39.316406 265.015625 C 41.011719 265.386719 42.898438 265.558594 44.980469 265.519531 C 47.105469 265.480469 49.433594 265.222656 51.964844 264.742188 C 55.0625 263.425781 53.292969 259.246094 51.964844 256.875 C 51.914062 256.777344 46.421875 247.472656 40.238281 247.535156 " fill-opacity="1" fill-rule="nonzero"/><path fill="#18442A" d="M 117.523438 203.425781 C 114.183594 206.113281 110.859375 208.714844 107.558594 211.214844 C 104.28125 213.699219 101.027344 216.089844 97.808594 218.371094 C 94.609375 220.640625 91.449219 222.800781 88.332031 224.851562 C 85.242188 226.886719 82.195312 228.808594 79.203125 230.609375 C 78.492188 231.179688 77.542969 232.011719 77.105469 232.8125 C 73.6875 239.117188 82.253906 251.578125 92 247.351562 C 95.074219 245.5 98.203125 243.523438 101.378906 241.433594 C 104.582031 239.328125 107.832031 237.105469 111.117188 234.777344 C 114.421875 232.429688 117.765625 229.976562 121.136719 227.421875 C 124.527344 224.851562 127.941406 222.183594 131.371094 219.417969 C 134.820312 216.640625 138.28125 213.773438 141.746094 210.820312 C 145.226562 207.855469 148.710938 204.804688 152.1875 201.679688 C 155.671875 198.542969 159.152344 195.335938 162.609375 192.058594 C 166.074219 188.773438 169.519531 185.421875 172.933594 182.019531 C 176.355469 178.605469 179.738281 175.136719 183.078125 171.625 C 186.425781 168.105469 189.726562 164.542969 192.964844 160.941406 C 196.210938 157.339844 199.394531 153.699219 202.511719 150.039062 C 205.625 146.375 208.667969 142.6875 211.632812 138.984375 C 213.738281 136.351562 215.800781 133.710938 217.816406 131.066406 C 218.636719 129.992188 219.441406 128.925781 220.234375 127.867188 C 222.976562 124.199219 225.5625 120.613281 227.992188 117.109375 C 230.414062 113.613281 232.6875 110.207031 234.796875 106.886719 C 236.902344 103.582031 238.855469 100.363281 240.652344 97.242188 C 242.890625 91.734375 239.257812 87.285156 237.589844 85.628906 C 237.507812 85.550781 229.136719 77.761719 223.882812 84.515625 C 222.132812 87.550781 220.234375 90.683594 218.183594 93.902344 C 216.128906 97.128906 213.921875 100.449219 211.5625 103.851562 C 209.195312 107.257812 206.679688 110.75 204.011719 114.320312 C 203.238281 115.351562 202.453125 116.390625 201.660156 117.433594 C 199.695312 120.007812 197.6875 122.578125 195.636719 125.140625 C 192.753906 128.746094 189.792969 132.335938 186.761719 135.898438 C 183.730469 139.464844 180.628906 143.003906 177.46875 146.511719 C 174.316406 150.011719 171.105469 153.484375 167.847656 156.90625 C 164.597656 160.328125 161.300781 163.703125 157.972656 167.023438 C 154.652344 170.339844 151.300781 173.597656 147.925781 176.796875 C 144.558594 179.984375 141.175781 183.109375 137.78125 186.160156 C 134.398438 189.199219 131.007812 192.167969 127.621094 195.054688 C 124.25 197.929688 120.878906 200.722656 117.523438 203.425781 " fill-opacity="1" fill-rule="nonzero"/><path fill="#18442A" d="M 238.386719 37.890625 C 239.171875 41.378906 239.066406 45.65625 238.085938 50.640625 C 238.078125 51.300781 238.167969 52.207031 238.402344 52.824219 C 240.5 58.351562 252.949219 67.539062 255.242188 62.4375 C 256.253906 57.320312 256.363281 52.921875 255.554688 49.339844 C 254.789062 45.925781 253.191406 43.25 250.761719 41.386719 L 246.347656 38.121094 C 242.515625 35.382812 237.191406 32.207031 233.023438 29.65625 C 233.203125 29.777344 233.382812 29.898438 233.554688 30.023438 C 236.015625 31.84375 237.621094 34.492188 238.386719 37.890625 " fill-opacity="1" fill-rule="nonzero"/><path fill="#18442A" d="M 154.515625 273.359375 C 162.765625 267.457031 171.238281 260.875 179.75 253.757812 C 188.285156 246.621094 196.859375 238.949219 205.289062 230.890625 C 210.199219 225.222656 208.179688 220.625 207.085938 218.914062 C 207.027344 218.824219 201.023438 210.414062 191.75 217.726562 C 183.089844 226.007812 174.277344 233.894531 165.507812 241.226562 C 156.765625 248.539062 148.0625 255.300781 139.582031 261.363281 C 131.164062 267.382812 122.964844 272.710938 115.171875 277.199219 C 107.46875 281.636719 100.15625 285.25 93.417969 287.894531 C 90.226562 289.148438 87.164062 290.183594 84.25 290.984375 C 81.101562 291.851562 78.21875 292.421875 75.589844 292.710938 C 70.628906 293.257812 66.597656 292.792969 63.480469 291.414062 C 62.503906 290.980469 61.617188 290.460938 60.820312 289.851562 C 64.238281 292.4375 69.011719 295.582031 72.542969 298.007812 L 79.328125 302.046875 C 79.6875 302.25 80.058594 302.433594 80.445312 302.605469 C 83.480469 303.949219 87.40625 304.398438 92.234375 303.867188 C 94.789062 303.585938 97.597656 303.035156 100.660156 302.1875 C 103.5 301.40625 106.480469 300.398438 109.585938 299.179688 C 116.144531 296.605469 123.257812 293.089844 130.757812 288.769531 C 138.34375 284.402344 146.320312 279.214844 154.515625 273.359375 " fill-opacity="1" fill-rule="nonzero"/><path fill="#18442A" d="M 289.941406 118.851562 C 292.441406 112.359375 293.917969 106.609375 294.351562 101.722656 C 294.773438 96.96875 294.21875 93.03125 292.667969 90.007812 C 292.601562 89.878906 292.535156 89.753906 292.46875 89.628906 C 290.230469 85.691406 286.917969 80.632812 284.496094 76.808594 L 280.328125 71.0625 C 280.777344 71.65625 281.179688 72.292969 281.53125 72.980469 C 283.121094 76.085938 283.695312 80.132812 283.257812 85.015625 C 282.8125 90.039062 281.296875 95.941406 278.726562 102.613281 C 278.382812 104.042969 278.023438 105.519531 278.917969 108.914062 C 280.566406 115.15625 286.972656 124.035156 289.941406 118.851562 " fill-opacity="1" fill-rule="nonzero"/><g clip-path="url(#901b80f242)"><path fill="#18442A" d="M 308.980469 165.464844 C 310.820312 159.929688 311.640625 155.152344 311.4375 151.257812 C 311.421875 150.960938 311.402344 150.671875 311.375 150.386719 L 311.148438 148.222656 C 310.488281 142.730469 309.105469 135.585938 307.980469 129.957031 C 308.113281 130.722656 308.207031 131.527344 308.25 132.375 C 308.472656 136.625 307.574219 141.84375 305.570312 147.886719 C 303.53125 154.035156 300.347656 161.039062 296.035156 168.761719 C 291.6875 176.558594 286.183594 185.082031 279.550781 194.195312 C 278.039062 196.273438 276.46875 198.378906 274.839844 200.515625 C 269.308594 207.765625 263.382812 214.976562 257.179688 222.054688 C 249.203125 231.15625 240.769531 240.035156 232.121094 248.492188 C 223.605469 256.820312 214.882812 264.738281 206.199219 272.039062 C 197.710938 279.179688 189.257812 285.734375 181.0625 291.519531 C 173.125 297.125 165.429688 302.007812 158.175781 306.007812 C 151.21875 309.839844 144.671875 312.859375 138.710938 314.917969 C 137.1875 315.441406 135.703125 315.90625 134.261719 316.304688 C 130.34375 317.378906 126.894531 317.9375 123.898438 318 C 121.886719 318.042969 120.078125 317.867188 118.480469 317.476562 L 119.605469 317.746094 C 125.671875 319 133.835938 320.3125 139.972656 321.164062 C 140.804688 321.246094 141.683594 321.273438 142.609375 321.253906 C 145.351562 321.195312 148.511719 320.6875 152.097656 319.699219 C 153.421875 319.335938 154.78125 318.914062 156.175781 318.429688 C 161.632812 316.546875 167.628906 313.78125 174 310.269531 C 180.640625 306.609375 187.691406 302.136719 194.960938 297.003906 C 202.464844 291.703125 210.207031 285.703125 217.980469 279.164062 C 225.933594 272.476562 233.921875 265.226562 241.722656 257.597656 C 249.636719 249.855469 257.363281 241.722656 264.667969 233.386719 C 270.347656 226.90625 275.773438 220.300781 280.839844 213.660156 C 282.332031 211.707031 283.769531 209.777344 285.152344 207.875 C 291.230469 199.53125 296.269531 191.722656 300.253906 184.585938 C 304.203125 177.507812 307.117188 171.09375 308.980469 165.464844 " fill-opacity="1" fill-rule="nonzero"/></g><path fill="#18442A" d="M 244.980469 286.265625 C 244.945312 286.25 241.296875 284.730469 235.652344 288.886719 C 232.980469 291.097656 230.3125 293.226562 227.671875 295.257812 C 225.082031 297.246094 222.515625 299.144531 219.980469 300.941406 C 217.503906 302.695312 215.0625 304.351562 212.664062 305.902344 C 210.324219 307.410156 208.03125 308.8125 205.792969 310.109375 C 203.617188 311.367188 201.492188 312.515625 199.425781 313.554688 C 197.425781 314.558594 195.484375 315.457031 193.609375 316.242188 C 191.800781 317 190.054688 317.648438 188.378906 318.1875 C 187.710938 318.398438 187.054688 318.59375 186.414062 318.773438 C 185.503906 319.023438 184.628906 319.234375 183.785156 319.40625 C 188.003906 318.574219 193.355469 317.28125 197.417969 316.304688 C 200.085938 315.570312 203.59375 314.410156 206.242188 313.59375 C 207.296875 313.230469 208.378906 312.8125 209.492188 312.347656 C 211.039062 311.699219 212.636719 310.960938 214.285156 310.132812 C 215.984375 309.277344 217.738281 308.328125 219.527344 307.292969 C 221.375 306.226562 223.265625 305.070312 225.191406 303.824219 C 227.167969 302.550781 229.179688 301.183594 231.21875 299.738281 C 233.308594 298.257812 235.421875 296.695312 237.554688 295.054688 C 239.734375 293.382812 241.929688 291.628906 244.132812 289.808594 C 245.976562 288.101562 246.265625 286.910156 244.980469 286.265625 " fill-opacity="1" fill-rule="nonzero"/><path fill="#18442A" d="M 183.78125 319.40625 L 183.785156 319.40625 C 183.582031 319.449219 183.375 319.488281 183.179688 319.523438 C 183.375 319.488281 183.578125 319.449219 183.78125 319.40625 " fill-opacity="1" fill-rule="nonzero"/><path fill="#18442A" d="M 301.597656 213.503906 C 298.671875 218.796875 294.992188 224.566406 290.570312 230.730469 C 286.847656 236.53125 287.03125 241.734375 287.035156 241.785156 C 287.234375 244.574219 288.847656 242.554688 289.378906 241.894531 C 293.023438 236.8125 296.058594 232.058594 298.46875 227.699219 C 300.664062 223.726562 302.347656 220.082031 303.507812 216.824219 C 305.058594 211.945312 306.914062 205.375 308.195312 200.421875 L 309.597656 193.535156 C 309.273438 195.289062 308.773438 197.175781 308.101562 199.199219 C 306.691406 203.425781 304.519531 208.226562 301.597656 213.503906 " fill-opacity="1" fill-rule="nonzero"/><g clip-path="url(#276691d18c)"><g transform="matrix(1, 0, 0, 1, 390, 40)"><g clip-path="url(#b6862b1d3c)"><g fill="#18442A" fill-opacity="1"><g transform="translate(0.739871, 147.283006)"><g><path d="M 63.65625 1.8125 C 52.6875 1.8125 42.800781 -0.550781 34 -5.28125 C 25.207031 -10.007812 18.320312 -16.519531 13.34375 -24.8125 C 8.363281 -33.101562 5.875 -42.429688 5.875 -52.796875 C 5.875 -63.148438 8.363281 -72.472656 13.34375 -80.765625 C 18.320312 -89.066406 25.207031 -95.578125 34 -100.296875 C 42.800781 -105.023438 52.6875 -107.390625 63.65625 -107.390625 C 74.613281 -107.390625 84.460938 -105.023438 93.203125 -100.296875 C 101.953125 -95.578125 108.84375 -89.066406 113.875 -80.765625 C 118.90625 -72.472656 121.421875 -63.148438 121.421875 -52.796875 C 121.421875 -42.429688 118.90625 -33.101562 113.875 -24.8125 C 108.84375 -16.519531 101.953125 -10.007812 93.203125 -5.28125 C 84.460938 -0.550781 74.613281 1.8125 63.65625 1.8125 Z M 63.65625 -19 C 69.882812 -19 75.507812 -20.429688 80.53125 -23.296875 C 85.5625 -26.160156 89.507812 -30.15625 92.375 -35.28125 C 95.25 -40.414062 96.6875 -46.253906 96.6875 -52.796875 C 96.6875 -59.328125 95.25 -65.15625 92.375 -70.28125 C 89.507812 -75.414062 85.5625 -79.414062 80.53125 -82.28125 C 75.507812 -85.144531 69.882812 -86.578125 63.65625 -86.578125 C 57.414062 -86.578125 51.78125 -85.144531 46.75 -82.28125 C 41.726562 -79.414062 37.785156 -75.414062 34.921875 -70.28125 C 32.054688 -65.15625 30.625 -59.328125 30.625 -52.796875 C 30.625 -46.253906 32.054688 -40.414062 34.921875 -35.28125 C 37.785156 -30.15625 41.726562 -26.160156 46.75 -23.296875 C 51.78125 -20.429688 57.414062 -19 63.65625 -19 Z M 63.65625 -19 "/></g></g></g><g fill="#18442A" fill-opacity="1"><g transform="translate(145.66558, 147.283006)"><g><path d="M 109.34375 -105.578125 L 109.34375 0 L 89.296875 0 L 36.65625 -64.109375 L 36.65625 0 L 12.515625 0 L 12.515625 -105.578125 L 32.734375 -105.578125 L 85.21875 -41.484375 L 85.21875 -105.578125 Z M 109.34375 -105.578125 "/></g></g></g><g fill="#18442A" fill-opacity="1"><g transform="translate(285.162392, 147.283006)"><g><path d="M 94.265625 -19.609375 L 94.265625 0 L 12.515625 0 L 12.515625 -105.578125 L 92.3125 -105.578125 L 92.3125 -85.96875 L 36.796875 -85.96875 L 36.796875 -63.046875 L 85.828125 -63.046875 L 85.828125 -44.046875 L 36.796875 -44.046875 L 36.796875 -19.609375 Z M 94.265625 -19.609375 "/></g></g></g><g fill="#18442A" fill-opacity="1"><g transform="translate(464.324495, 147.283006)"><g><path d="M 83.859375 -54.453125 L 106.1875 -54.453125 L 106.1875 -11.609375 C 100.445312 -7.285156 93.804688 -3.96875 86.265625 -1.65625 C 78.734375 0.65625 71.144531 1.8125 63.5 1.8125 C 52.539062 1.8125 42.6875 -0.523438 33.9375 -5.203125 C 25.1875 -9.878906 18.320312 -16.363281 13.34375 -24.65625 C 8.363281 -32.957031 5.875 -42.335938 5.875 -52.796875 C 5.875 -63.242188 8.363281 -72.613281 13.34375 -80.90625 C 18.320312 -89.207031 25.234375 -95.695312 34.078125 -100.375 C 42.929688 -105.050781 52.890625 -107.390625 63.953125 -107.390625 C 73.203125 -107.390625 81.597656 -105.828125 89.140625 -102.703125 C 96.679688 -99.585938 103.015625 -95.066406 108.140625 -89.140625 L 92.453125 -74.65625 C 84.910156 -82.601562 75.8125 -86.578125 65.15625 -86.578125 C 58.414062 -86.578125 52.429688 -85.164062 47.203125 -82.34375 C 41.972656 -79.53125 37.898438 -75.5625 34.984375 -70.4375 C 32.078125 -65.3125 30.625 -59.429688 30.625 -52.796875 C 30.625 -46.253906 32.078125 -40.414062 34.984375 -35.28125 C 37.898438 -30.15625 41.945312 -26.160156 47.125 -23.296875 C 52.3125 -20.429688 58.222656 -19 64.859375 -19 C 71.890625 -19 78.222656 -20.507812 83.859375 -23.53125 Z M 83.859375 -54.453125 "/></g></g></g><g fill="#18442A" fill-opacity="1"><g transform="translate(598.24157, 147.283006)"><g><path d="M 82.046875 -22.625 L 33.03125 -22.625 L 23.6875 0 L -1.359375 0 L 45.703125 -105.578125 L 69.828125 -105.578125 L 117.046875 0 L 91.40625 0 Z M 74.359375 -41.171875 L 57.609375 -81.59375 L 40.875 -41.171875 Z M 74.359375 -41.171875 "/></g></g></g><g fill="#18442A" fill-opacity="1"><g transform="translate(731.404673, 147.283006)"><g><path d="M 34.390625 -85.671875 L 0.609375 -85.671875 L 0.609375 -105.578125 L 92.609375 -105.578125 L 92.609375 -85.671875 L 58.828125 -85.671875 L 58.828125 0 L 34.390625 0 Z M 34.390625 -85.671875 "/></g></g></g><g fill="#18442A" fill-opacity="1"><g transform="translate(842.24892, 147.283006)"><g><path d="M 94.265625 -19.609375 L 94.265625 0 L 12.515625 0 L 12.515625 -105.578125 L 92.3125 -105.578125 L 92.3125 -85.96875 L 36.796875 -85.96875 L 36.796875 -63.046875 L 85.828125 -63.046875 L 85.828125 -44.046875 L 36.796875 -44.046875 L 36.796875 -19.609375 Z M 94.265625 -19.609375 "/></g></g></g><g fill="#18442A" fill-opacity="1"><g transform="translate(961.096023, 147.283006)"><g/></g></g></g></g></g><g transform="matrix(1, 0, 0, 1, 396, 233)"><g clip-path="url(#d4bc31f906)"><g fill="#18442A" fill-opacity="1"><g transform="translate(0.441797, 42.095172)"><g><path d="M 28.40625 -4.90625 C 25.289062 -1.476562 21.703125 0.234375 17.640625 0.234375 C 15.378906 0.234375 13.296875 -0.25 11.390625 -1.21875 C 9.492188 -2.195312 7.84375 -3.488281 6.4375 -5.09375 C 5.039062 -6.695312 3.945312 -8.515625 3.15625 -10.546875 C 2.375 -12.578125 1.984375 -14.660156 1.984375 -16.796875 C 1.984375 -19.035156 2.367188 -21.175781 3.140625 -23.21875 C 3.910156 -25.257812 4.988281 -27.054688 6.375 -28.609375 C 7.757812 -30.171875 9.394531 -31.414062 11.28125 -32.34375 C 13.164062 -33.269531 15.222656 -33.734375 17.453125 -33.734375 C 19.085938 -33.734375 20.582031 -33.550781 21.9375 -33.1875 C 23.289062 -32.832031 24.492188 -32.332031 25.546875 -31.6875 C 26.609375 -31.039062 27.519531 -30.269531 28.28125 -29.375 C 29.050781 -28.476562 29.707031 -27.492188 30.25 -26.421875 L 27.703125 -24.71875 C 26.597656 -26.800781 25.164062 -28.328125 23.40625 -29.296875 C 21.644531 -30.273438 19.644531 -30.765625 17.40625 -30.765625 C 15.550781 -30.765625 13.875 -30.367188 12.375 -29.578125 C 10.882812 -28.796875 9.613281 -27.75 8.5625 -26.4375 C 7.507812 -25.132812 6.695312 -23.640625 6.125 -21.953125 C 5.5625 -20.273438 5.28125 -18.539062 5.28125 -16.75 C 5.28125 -14.863281 5.601562 -13.070312 6.25 -11.375 C 6.894531 -9.675781 7.785156 -8.1875 8.921875 -6.90625 C 10.054688 -5.632812 11.382812 -4.617188 12.90625 -3.859375 C 14.425781 -3.109375 16.085938 -2.734375 17.890625 -2.734375 C 19.804688 -2.734375 21.632812 -3.179688 23.375 -4.078125 C 25.125 -4.972656 26.800781 -6.398438 28.40625 -8.359375 L 28.40625 -13.921875 L 20.953125 -13.921875 L 20.953125 -16.46875 L 31.1875 -16.46875 L 31.1875 0 L 28.40625 0 Z M 28.40625 -4.90625 "/></g></g></g><g fill="#18442A" fill-opacity="1"><g transform="translate(44.602821, 42.095172)"><g><path d="M 4.203125 0 L 4.203125 -33.5 L 7.5 -33.5 L 7.5 -2.921875 L 26.84375 -2.921875 L 26.84375 0 Z M 4.203125 0 "/></g></g></g><g fill="#18442A" fill-opacity="1"><g transform="translate(82.488996, 42.095172)"><g><path d="M 17.703125 0.234375 C 15.367188 0.234375 13.234375 -0.242188 11.296875 -1.203125 C 9.367188 -2.160156 7.710938 -3.429688 6.328125 -5.015625 C 4.941406 -6.609375 3.867188 -8.425781 3.109375 -10.46875 C 2.359375 -12.519531 1.984375 -14.613281 1.984375 -16.75 C 1.984375 -18.988281 2.382812 -21.128906 3.1875 -23.171875 C 3.988281 -25.210938 5.097656 -27.019531 6.515625 -28.59375 C 7.929688 -30.164062 9.597656 -31.414062 11.515625 -32.34375 C 13.429688 -33.269531 15.507812 -33.734375 17.75 -33.734375 C 20.070312 -33.734375 22.195312 -33.238281 24.125 -32.25 C 26.0625 -31.257812 27.710938 -29.960938 29.078125 -28.359375 C 30.453125 -26.753906 31.515625 -24.9375 32.265625 -22.90625 C 33.023438 -20.875 33.40625 -18.804688 33.40625 -16.703125 C 33.40625 -14.472656 33.003906 -12.332031 32.203125 -10.28125 C 31.398438 -8.238281 30.296875 -6.4375 28.890625 -4.875 C 27.492188 -3.320312 25.835938 -2.082031 23.921875 -1.15625 C 22.003906 -0.226562 19.929688 0.234375 17.703125 0.234375 Z M 5.28125 -16.75 C 5.28125 -14.925781 5.578125 -13.171875 6.171875 -11.484375 C 6.773438 -9.804688 7.625 -8.3125 8.71875 -7 C 9.820312 -5.695312 11.128906 -4.660156 12.640625 -3.890625 C 14.148438 -3.117188 15.835938 -2.734375 17.703125 -2.734375 C 19.585938 -2.734375 21.300781 -3.140625 22.84375 -3.953125 C 24.382812 -4.773438 25.6875 -5.847656 26.75 -7.171875 C 27.820312 -8.492188 28.648438 -9.988281 29.234375 -11.65625 C 29.816406 -13.320312 30.109375 -15.019531 30.109375 -16.75 C 30.109375 -18.570312 29.800781 -20.320312 29.1875 -22 C 28.570312 -23.6875 27.710938 -25.175781 26.609375 -26.46875 C 25.515625 -27.757812 24.210938 -28.789062 22.703125 -29.5625 C 21.191406 -30.332031 19.523438 -30.71875 17.703125 -30.71875 C 15.804688 -30.71875 14.085938 -30.316406 12.546875 -29.515625 C 11.003906 -28.710938 9.695312 -27.648438 8.625 -26.328125 C 7.5625 -25.003906 6.738281 -23.507812 6.15625 -21.84375 C 5.570312 -20.175781 5.28125 -18.476562 5.28125 -16.75 Z M 5.28125 -16.75 "/></g></g></g><g fill="#18442A" fill-opacity="1"><g transform="translate(128.301321, 42.095172)"><g><path d="M 29.390625 -8.640625 C 29.390625 -7.378906 29.140625 -6.222656 28.640625 -5.171875 C 28.140625 -4.117188 27.460938 -3.207031 26.609375 -2.4375 C 25.765625 -1.664062 24.773438 -1.066406 23.640625 -0.640625 C 22.503906 -0.210938 21.289062 0 20 0 L 4.203125 0 L 4.203125 -33.5 L 20.34375 -33.5 C 21.5 -33.5 22.550781 -33.25 23.5 -32.75 C 24.445312 -32.25 25.25 -31.597656 25.90625 -30.796875 C 26.5625 -29.992188 27.070312 -29.078125 27.4375 -28.046875 C 27.800781 -27.023438 27.984375 -26 27.984375 -24.96875 C 27.984375 -23.269531 27.554688 -21.71875 26.703125 -20.3125 C 25.859375 -18.914062 24.679688 -17.867188 23.171875 -17.171875 C 25.085938 -16.609375 26.601562 -15.554688 27.71875 -14.015625 C 28.832031 -12.472656 29.390625 -10.679688 29.390625 -8.640625 Z M 26.09375 -9.203125 C 26.09375 -10.015625 25.953125 -10.804688 25.671875 -11.578125 C 25.390625 -12.347656 24.988281 -13.023438 24.46875 -13.609375 C 23.945312 -14.191406 23.332031 -14.664062 22.625 -15.03125 C 21.914062 -15.394531 21.15625 -15.578125 20.34375 -15.578125 L 7.5 -15.578125 L 7.5 -2.875 L 20 -2.875 C 20.851562 -2.875 21.648438 -3.046875 22.390625 -3.390625 C 23.128906 -3.742188 23.773438 -4.207031 24.328125 -4.78125 C 24.878906 -5.363281 25.3125 -6.039062 25.625 -6.8125 C 25.9375 -7.582031 26.09375 -8.378906 26.09375 -9.203125 Z M 7.5 -30.625 L 7.5 -18.265625 L 19.015625 -18.265625 C 19.835938 -18.265625 20.597656 -18.4375 21.296875 -18.78125 C 22.003906 -19.125 22.609375 -19.578125 23.109375 -20.140625 C 23.617188 -20.710938 24.015625 -21.367188 24.296875 -22.109375 C 24.578125 -22.847656 24.71875 -23.625 24.71875 -24.4375 C 24.71875 -25.289062 24.582031 -26.09375 24.3125 -26.84375 C 24.050781 -27.601562 23.675781 -28.257812 23.1875 -28.8125 C 22.707031 -29.363281 22.132812 -29.800781 21.46875 -30.125 C 20.8125 -30.457031 20.085938 -30.625 19.296875 -30.625 Z M 7.5 -30.625 "/></g></g></g><g fill="#18442A" fill-opacity="1"><g transform="translate(170.103365, 42.095172)"><g><path d="M 14.578125 -33.5 L 17.359375 -33.5 L 31.28125 0 L 27.796875 0 L 23.453125 -10.46875 L 8.40625 -10.46875 L 4.109375 0 L 0.5625 0 Z M 22.703125 -13.078125 L 15.953125 -29.640625 L 9.109375 -13.078125 Z M 22.703125 -13.078125 "/></g></g></g><g fill="#18442A" fill-opacity="1"><g transform="translate(212.377223, 42.095172)"><g><path d="M 4.203125 0 L 4.203125 -33.5 L 7.5 -33.5 L 7.5 -2.921875 L 26.84375 -2.921875 L 26.84375 0 Z M 4.203125 0 "/></g></g></g><g fill="#18442A" fill-opacity="1"><g transform="translate(250.263398, 42.095172)"><g/></g></g><g fill="#18442A" fill-opacity="1"><g transform="translate(272.674675, 42.095172)"><g><path d="M 27.984375 -30.578125 L 16.046875 -30.578125 L 16.046875 0 L 12.734375 0 L 12.734375 -30.578125 L 0.796875 -30.578125 L 0.796875 -33.5 L 27.984375 -33.5 Z M 27.984375 -30.578125 "/></g></g></g><g fill="#18442A" fill-opacity="1"><g transform="translate(311.83467, 42.095172)"><g><path d="M 4.203125 0 L 4.203125 -33.5 L 18.359375 -33.5 C 19.804688 -33.5 21.132812 -33.191406 22.34375 -32.578125 C 23.550781 -31.960938 24.59375 -31.160156 25.46875 -30.171875 C 26.351562 -29.179688 27.039062 -28.054688 27.53125 -26.796875 C 28.019531 -25.546875 28.265625 -24.273438 28.265625 -22.984375 C 28.265625 -21.753906 28.082031 -20.582031 27.71875 -19.46875 C 27.363281 -18.351562 26.863281 -17.34375 26.21875 -16.4375 C 25.570312 -15.539062 24.789062 -14.785156 23.875 -14.171875 C 22.96875 -13.566406 21.945312 -13.148438 20.8125 -12.921875 L 29.015625 0 L 25.296875 0 L 17.40625 -12.359375 L 7.5 -12.359375 L 7.5 0 Z M 7.5 -15.28125 L 18.453125 -15.28125 C 19.421875 -15.28125 20.304688 -15.492188 21.109375 -15.921875 C 21.910156 -16.347656 22.59375 -16.921875 23.15625 -17.640625 C 23.726562 -18.367188 24.171875 -19.1875 24.484375 -20.09375 C 24.804688 -21.007812 24.96875 -21.972656 24.96875 -22.984375 C 24.96875 -23.984375 24.785156 -24.945312 24.421875 -25.875 C 24.054688 -26.8125 23.566406 -27.625 22.953125 -28.3125 C 22.335938 -29 21.613281 -29.546875 20.78125 -29.953125 C 19.945312 -30.367188 19.078125 -30.578125 18.171875 -30.578125 L 7.5 -30.578125 Z M 7.5 -15.28125 "/></g></g></g><g fill="#18442A" fill-opacity="1"><g transform="translate(353.023408, 42.095172)"><g><path d="M 14.578125 -33.5 L 17.359375 -33.5 L 31.28125 0 L 27.796875 0 L 23.453125 -10.46875 L 8.40625 -10.46875 L 4.109375 0 L 0.5625 0 Z M 22.703125 -13.078125 L 15.953125 -29.640625 L 9.109375 -13.078125 Z M 22.703125 -13.078125 "/></g></g></g><g fill="#18442A" fill-opacity="1"><g transform="translate(395.297265, 42.095172)"><g><path d="M 4.203125 0 L 4.203125 -33.5 L 15.578125 -33.5 C 18.242188 -33.5 20.578125 -33.054688 22.578125 -32.171875 C 24.578125 -31.296875 26.242188 -30.101562 27.578125 -28.59375 C 28.921875 -27.082031 29.925781 -25.3125 30.59375 -23.28125 C 31.269531 -21.257812 31.609375 -19.097656 31.609375 -16.796875 C 31.609375 -14.253906 31.226562 -11.953125 30.46875 -9.890625 C 29.71875 -7.828125 28.644531 -6.0625 27.25 -4.59375 C 25.851562 -3.132812 24.171875 -2.003906 22.203125 -1.203125 C 20.234375 -0.398438 18.023438 0 15.578125 0 Z M 28.3125 -16.796875 C 28.3125 -18.804688 28.023438 -20.65625 27.453125 -22.34375 C 26.890625 -24.03125 26.066406 -25.484375 24.984375 -26.703125 C 23.898438 -27.929688 22.570312 -28.882812 21 -29.5625 C 19.425781 -30.238281 17.617188 -30.578125 15.578125 -30.578125 L 7.5 -30.578125 L 7.5 -2.921875 L 15.578125 -2.921875 C 17.648438 -2.921875 19.476562 -3.273438 21.0625 -3.984375 C 22.65625 -4.691406 23.984375 -5.664062 25.046875 -6.90625 C 26.117188 -8.15625 26.929688 -9.617188 27.484375 -11.296875 C 28.035156 -12.984375 28.3125 -14.816406 28.3125 -16.796875 Z M 28.3125 -16.796875 "/></g></g></g><g fill="#18442A" fill-opacity="1"><g transform="translate(439.411123, 42.095172)"><g><path d="M 4.203125 0 L 4.203125 -33.5 L 7.5 -33.5 L 7.5 0 Z M 4.203125 0 "/></g></g></g><g fill="#18442A" fill-opacity="1"><g transform="translate(461.492125, 42.095172)"><g><path d="M 7.5 -27.375 L 7.5 0 L 4.203125 0 L 4.203125 -33.5 L 6.75 -33.5 L 28.921875 -5.609375 L 28.921875 -33.453125 L 32.234375 -33.453125 L 32.234375 0 L 29.34375 0 Z M 7.5 -27.375 "/></g></g></g><g fill="#18442A" fill-opacity="1"><g transform="translate(508.2952, 42.095172)"><g><path d="M 28.40625 -4.90625 C 25.289062 -1.476562 21.703125 0.234375 17.640625 0.234375 C 15.378906 0.234375 13.296875 -0.25 11.390625 -1.21875 C 9.492188 -2.195312 7.84375 -3.488281 6.4375 -5.09375 C 5.039062 -6.695312 3.945312 -8.515625 3.15625 -10.546875 C 2.375 -12.578125 1.984375 -14.660156 1.984375 -16.796875 C 1.984375 -19.035156 2.367188 -21.175781 3.140625 -23.21875 C 3.910156 -25.257812 4.988281 -27.054688 6.375 -28.609375 C 7.757812 -30.171875 9.394531 -31.414062 11.28125 -32.34375 C 13.164062 -33.269531 15.222656 -33.734375 17.453125 -33.734375 C 19.085938 -33.734375 20.582031 -33.550781 21.9375 -33.1875 C 23.289062 -32.832031 24.492188 -32.332031 25.546875 -31.6875 C 26.609375 -31.039062 27.519531 -30.269531 28.28125 -29.375 C 29.050781 -28.476562 29.707031 -27.492188 30.25 -26.421875 L 27.703125 -24.71875 C 26.597656 -26.800781 25.164062 -28.328125 23.40625 -29.296875 C 21.644531 -30.273438 19.644531 -30.765625 17.40625 -30.765625 C 15.550781 -30.765625 13.875 -30.367188 12.375 -29.578125 C 10.882812 -28.796875 9.613281 -27.75 8.5625 -26.4375 C 7.507812 -25.132812 6.695312 -23.640625 6.125 -21.953125 C 5.5625 -20.273438 5.28125 -18.539062 5.28125 -16.75 C 5.28125 -14.863281 5.601562 -13.070312 6.25 -11.375 C 6.894531 -9.675781 7.785156 -8.1875 8.921875 -6.90625 C 10.054688 -5.632812 11.382812 -4.617188 12.90625 -3.859375 C 14.425781 -3.109375 16.085938 -2.734375 17.890625 -2.734375 C 19.804688 -2.734375 21.632812 -3.179688 23.375 -4.078125 C 25.125 -4.972656 26.800781 -6.398438 28.40625 -8.359375 L 28.40625 -13.921875 L 20.953125 -13.921875 L 20.953125 -16.46875 L 31.1875 -16.46875 L 31.1875 0 L 28.40625 0 Z M 28.40625 -4.90625 "/></g></g></g></g></g></svg>